<?xml version="1.0" encoding="UTF-8"?>
<svg id="Layer_1" data-name="Layer 1" xmlns="http://www.w3.org/2000/svg" viewBox="0 0 192 192">
  <defs>
    <style>
      .cls-1 {
        fill: red;
        stroke-width: 0px;
      }
    </style>
  </defs>
  <path class="cls-1" d="M124.35,10.56v57.09h-56.7V10.56c8.91-2.96,18.44-4.56,28.35-4.56s19.44,1.6,28.35,4.56Z"/>
  <path class="cls-1" d="M124.35,124.35v57.09c-8.91,2.96-18.44,4.56-28.35,4.56s-19.44-1.6-28.35-4.56v-57.09h56.7Z"/>
  <path class="cls-1" d="M67.65,67.65v56.7H10.55c-2.95-8.91-4.55-18.44-4.55-28.35s1.6-19.44,4.55-28.35h57.1Z"/>
  <path class="cls-1" d="M186,96c0,9.91-1.6,19.44-4.55,28.35h-57.1v-56.7h57.1c2.95,8.91,4.55,18.44,4.55,28.35Z"/>
</svg>