<?xml version="1.0" encoding="UTF-8"?>
<svg id="Layer_2" data-name="Layer 2" xmlns="http://www.w3.org/2000/svg" viewBox="0 0 136.28 29.42">
  <defs>
    <style>
      .cls-1 {
        fill: #fff;
        stroke-width: 0px;
      }
    </style>
  </defs>
  <g id="Layer_1-2" data-name="Layer 1">
    <g>
      <g>
        <path class="cls-1" d="M52.05,10.46c-.3-.38-.71-.67-1.23-.85-.52-.18-1.01-.28-1.47-.28-.27,0-.55.03-.84.1-.29.06-.56.16-.81.3-.26.14-.46.32-.62.54-.16.22-.24.49-.24.81,0,.51.19.9.57,1.17.38.27.87.5,1.45.69.58.19,1.21.38,1.88.57.67.19,1.3.46,1.88.81.58.35,1.07.82,1.45,1.41.38.59.57,1.38.57,2.37s-.18,1.76-.53,2.47c-.35.7-.83,1.28-1.42,1.75-.6.46-1.29.81-2.08,1.03s-1.62.34-2.5.34c-1.1,0-2.12-.17-3.06-.5-.94-.34-1.82-.88-2.63-1.63l2.66-2.92c.38.51.87.91,1.45,1.18.58.28,1.18.42,1.81.42.3,0,.61-.04.92-.11.31-.07.59-.18.84-.32.25-.14.45-.33.6-.55.15-.22.23-.49.23-.79,0-.51-.2-.91-.59-1.21-.39-.3-.88-.55-1.47-.75-.59-.21-1.23-.41-1.91-.62-.69-.21-1.32-.49-1.91-.84-.59-.35-1.08-.81-1.47-1.39-.39-.57-.59-1.33-.59-2.27s.18-1.71.54-2.39c.36-.69.84-1.26,1.44-1.72.6-.46,1.29-.81,2.07-1.04.78-.23,1.59-.35,2.42-.35.96,0,1.88.14,2.78.41.89.27,1.7.73,2.42,1.36l-2.56,2.8Z"/>
        <path class="cls-1" d="M56.24,6.32h4.07l2.7,10.87h.05l3.54-10.87h3.47l3.52,11.15h.05l2.85-11.15h3.78l-4.95,16.95h-3.33l-3.73-11.73h-.05l-3.73,11.73h-3.21l-5.03-16.95Z"/>
        <path class="cls-1" d="M82.5,6.32h3.73v16.95h-3.73V6.32Z"/>
        <path class="cls-1" d="M93.51,9.63h-4.83v-3.3h13.4v3.3h-4.83v13.64h-3.73v-13.64Z"/>
        <path class="cls-1" d="M115.64,10.73c-.37-.45-.82-.79-1.35-1.03-.53-.24-1.15-.36-1.85-.36s-1.35.14-1.95.41c-.6.27-1.12.65-1.56,1.14-.44.49-.78,1.07-1.03,1.74-.25.67-.37,1.4-.37,2.18s.12,1.53.37,2.19c.25.66.59,1.24,1.02,1.72.43.49.94.87,1.52,1.14.58.27,1.21.41,1.88.41.77,0,1.44-.16,2.03-.48.59-.32,1.08-.77,1.46-1.34l3.11,2.32c-.72,1.01-1.63,1.75-2.73,2.23-1.1.48-2.23.72-3.4.72-1.32,0-2.55-.21-3.66-.62-1.12-.41-2.08-1.01-2.9-1.78-.81-.77-1.45-1.71-1.9-2.81s-.68-2.33-.68-3.69.23-2.58.68-3.69,1.09-2.04,1.9-2.81c.81-.77,1.78-1.37,2.9-1.78,1.12-.41,2.34-.62,3.66-.62.48,0,.98.04,1.5.13.52.09,1.03.23,1.53.42s.99.45,1.45.77c.46.32.88.71,1.24,1.17l-2.87,2.35Z"/>
        <path class="cls-1" d="M121.56,6.32h3.73v6.32h7.25v-6.32h3.73v16.95h-3.73v-7.32h-7.25v7.32h-3.73V6.32Z"/>
      </g>
      <g>
        <path class="cls-1" d="M19.34.75v9.33h-9.27V.75c1.46-.48,3.01-.75,4.63-.75s3.18.26,4.63.75Z"/>
        <path class="cls-1" d="M19.34,19.34v9.33c-1.46.48-3.01.75-4.63.75s-3.18-.26-4.63-.75v-9.33h9.27Z"/>
        <path class="cls-1" d="M10.07,10.07v9.27H.74c-.48-1.46-.74-3.01-.74-4.63s.26-3.18.74-4.63h9.33Z"/>
        <path class="cls-1" d="M29.42,14.71c0,1.62-.26,3.18-.74,4.63h-9.33v-9.27h9.33c.48,1.46.74,3.01.74,4.63Z"/>
      </g>
    </g>
  </g>
</svg>